<svg width="1280" height="900" viewBox="0 0 1280 900" fill="none" xmlns="http://www.w3.org/2000/svg">
  <rect width="1280" height="900" rx="28" fill="#F8FAFC"/>
  <rect x="28" y="28" width="1224" height="844" rx="20" fill="white" stroke="#E2E8F0"/>
  <rect x="58" y="58" width="220" height="784" rx="16" fill="#0F172A"/>
  <rect x="84" y="96" width="140" height="18" rx="9" fill="#BFDBFE"/>
  <rect x="84" y="142" width="170" height="14" rx="7" fill="#334155"/>
  <rect x="84" y="170" width="170" height="14" rx="7" fill="#334155"/>
  <rect x="84" y="198" width="170" height="14" rx="7" fill="#334155"/>
  <rect x="84" y="226" width="170" height="14" rx="7" fill="#334155"/>
  <rect x="84" y="254" width="170" height="14" rx="7" fill="#334155"/>
  <rect x="312" y="58" width="910" height="72" rx="16" fill="#FFFFFF" stroke="#E2E8F0"/>
  <rect x="340" y="82" width="220" height="24" rx="12" fill="#DBEAFE"/>
  <rect x="1068" y="82" width="124" height="24" rx="12" fill="#2563EB"/>
  <rect x="312" y="154" width="438" height="176" rx="16" fill="#FFFFFF" stroke="#E2E8F0"/>
  <rect x="778" y="154" width="444" height="176" rx="16" fill="#FFFFFF" stroke="#E2E8F0"/>
  <rect x="340" y="184" width="190" height="18" rx="9" fill="#E2E8F0"/>
  <rect x="340" y="220" width="360" height="12" rx="6" fill="#F1F5F9"/>
  <rect x="806" y="184" width="190" height="18" rx="9" fill="#E2E8F0"/>
  <rect x="806" y="220" width="370" height="12" rx="6" fill="#F1F5F9"/>
  <rect x="312" y="356" width="438" height="486" rx="16" fill="#FFFFFF" stroke="#E2E8F0"/>
  <rect x="778" y="356" width="444" height="486" rx="16" fill="#FFFFFF" stroke="#E2E8F0"/>
  <rect x="340" y="392" width="188" height="16" rx="8" fill="#E2E8F0"/>
  <rect x="340" y="426" width="380" height="10" rx="5" fill="#F1F5F9"/>
  <rect x="340" y="458" width="380" height="10" rx="5" fill="#F1F5F9"/>
  <rect x="340" y="490" width="380" height="10" rx="5" fill="#F1F5F9"/>
  <rect x="340" y="522" width="380" height="10" rx="5" fill="#F1F5F9"/>
  <rect x="806" y="392" width="220" height="16" rx="8" fill="#E2E8F0"/>
  <rect x="806" y="426" width="380" height="10" rx="5" fill="#F1F5F9"/>
  <rect x="806" y="458" width="380" height="10" rx="5" fill="#F1F5F9"/>
  <rect x="806" y="490" width="380" height="10" rx="5" fill="#F1F5F9"/>
  <rect x="806" y="522" width="380" height="10" rx="5" fill="#F1F5F9"/>
  <rect x="806" y="560" width="168" height="32" rx="16" fill="#ECFDF5"/>
  <rect x="980" y="560" width="168" height="32" rx="16" fill="#EFF6FF"/>
</svg>
